<mxfile host="app.diagrams.net" modified="2024-03-06T22:23:35.869Z" agent="Mozilla/5.0 (Windows NT 10.0; Win64; x64) AppleWebKit/537.36 (KHTML, like Gecko) Chrome/122.0.0.0 Safari/537.36" etag="Sme2TviCU0mtXYQmHRCk" version="24.0.1" type="github">
  <diagram name="PÃ¡gina-1" id="e1_wRRaNP_i4suFVxVqr">
    <mxGraphModel dx="2041" dy="1476" grid="1" gridSize="10" guides="1" tooltips="1" connect="1" arrows="1" fold="1" page="1" pageScale="1" pageWidth="827" pageHeight="1169" math="0" shadow="0">
      <root>
        <mxCell id="0" />
        <mxCell id="1" parent="0" />
        <mxCell id="oCR6-psDNviW3AfrLjAQ-1" value="Acceso Visibilidad Listas Desplegables Shortcuts" style="swimlane;whiteSpace=wrap;html=1;" vertex="1" parent="1">
          <mxGeometry x="910" y="40" width="1270" height="1240" as="geometry" />
        </mxCell>
        <mxCell id="w67qg9FCLOekjY4AeZFf-46" value="" style="verticalLabelPosition=bottom;verticalAlign=top;html=1;shape=mxgraph.basic.tick" parent="oCR6-psDNviW3AfrLjAQ-1" vertex="1">
          <mxGeometry x="510" y="90" width="20" height="20" as="geometry" />
        </mxCell>
        <mxCell id="w67qg9FCLOekjY4AeZFf-47" value="Tiene Acceso" style="text;strokeColor=none;fillColor=none;html=1;fontSize=24;fontStyle=1;verticalAlign=middle;align=center;" parent="oCR6-psDNviW3AfrLjAQ-1" vertex="1">
          <mxGeometry x="540" y="80" width="170" height="40" as="geometry" />
        </mxCell>
        <mxCell id="w67qg9FCLOekjY4AeZFf-48" value="Usuarios" style="swimlane;whiteSpace=wrap;html=1;startSize=23;" parent="oCR6-psDNviW3AfrLjAQ-1" vertex="1">
          <mxGeometry x="80" y="70" width="380" height="1120" as="geometry" />
        </mxCell>
        <mxCell id="w67qg9FCLOekjY4AeZFf-1" value="" style="verticalLabelPosition=bottom;shadow=0;dashed=0;align=center;html=1;verticalAlign=top;strokeWidth=1;shape=mxgraph.mockup.containers.userMale;strokeColor=#666666;strokeColor2=#008cff;" parent="w67qg9FCLOekjY4AeZFf-48" vertex="1">
          <mxGeometry x="40" y="70" width="100" height="100" as="geometry" />
        </mxCell>
        <mxCell id="w67qg9FCLOekjY4AeZFf-3" value="USER01" style="text;html=1;align=center;verticalAlign=middle;whiteSpace=wrap;rounded=0;" parent="w67qg9FCLOekjY4AeZFf-48" vertex="1">
          <mxGeometry x="150" y="105" width="60" height="30" as="geometry" />
        </mxCell>
        <mxCell id="w67qg9FCLOekjY4AeZFf-26" value="" style="verticalLabelPosition=bottom;shadow=0;dashed=0;align=center;html=1;verticalAlign=top;strokeWidth=1;shape=mxgraph.mockup.containers.userMale;strokeColor=#666666;strokeColor2=#008cff;" parent="w67qg9FCLOekjY4AeZFf-48" vertex="1">
          <mxGeometry x="30" y="317" width="100" height="100" as="geometry" />
        </mxCell>
        <mxCell id="w67qg9FCLOekjY4AeZFf-27" value="USER02" style="text;html=1;align=center;verticalAlign=middle;whiteSpace=wrap;rounded=0;" parent="w67qg9FCLOekjY4AeZFf-48" vertex="1">
          <mxGeometry x="140" y="352" width="60" height="30" as="geometry" />
        </mxCell>
        <mxCell id="w67qg9FCLOekjY4AeZFf-28" value="" style="verticalLabelPosition=bottom;shadow=0;dashed=0;align=center;html=1;verticalAlign=top;strokeWidth=1;shape=mxgraph.mockup.containers.userMale;strokeColor=#666666;strokeColor2=#008cff;" parent="w67qg9FCLOekjY4AeZFf-48" vertex="1">
          <mxGeometry x="30" y="560" width="100" height="100" as="geometry" />
        </mxCell>
        <mxCell id="w67qg9FCLOekjY4AeZFf-29" value="USER03" style="text;html=1;align=center;verticalAlign=middle;whiteSpace=wrap;rounded=0;" parent="w67qg9FCLOekjY4AeZFf-48" vertex="1">
          <mxGeometry x="140" y="595" width="60" height="30" as="geometry" />
        </mxCell>
        <mxCell id="w67qg9FCLOekjY4AeZFf-30" value="" style="verticalLabelPosition=bottom;shadow=0;dashed=0;align=center;html=1;verticalAlign=top;strokeWidth=1;shape=mxgraph.mockup.containers.userMale;strokeColor=#666666;strokeColor2=#008cff;" parent="w67qg9FCLOekjY4AeZFf-48" vertex="1">
          <mxGeometry x="30" y="830" width="100" height="100" as="geometry" />
        </mxCell>
        <mxCell id="w67qg9FCLOekjY4AeZFf-31" value="USER04" style="text;html=1;align=center;verticalAlign=middle;whiteSpace=wrap;rounded=0;" parent="w67qg9FCLOekjY4AeZFf-48" vertex="1">
          <mxGeometry x="140" y="865" width="60" height="30" as="geometry" />
        </mxCell>
        <mxCell id="w67qg9FCLOekjY4AeZFf-32" value="Siebel Administrator" style="text;strokeColor=none;fillColor=none;align=left;verticalAlign=middle;spacingLeft=4;spacingRight=4;overflow=hidden;points=[[0,0.5],[1,0.5]];portConstraint=eastwest;rotatable=0;whiteSpace=wrap;html=1;" parent="w67qg9FCLOekjY4AeZFf-48" vertex="1">
          <mxGeometry x="110" y="180" width="120" height="30" as="geometry" />
        </mxCell>
        <mxCell id="w67qg9FCLOekjY4AeZFf-33" value="BPD Usuario Revisor" style="text;strokeColor=none;fillColor=none;align=left;verticalAlign=middle;spacingLeft=4;spacingRight=4;overflow=hidden;points=[[0,0.5],[1,0.5]];portConstraint=eastwest;rotatable=0;whiteSpace=wrap;html=1;" parent="w67qg9FCLOekjY4AeZFf-48" vertex="1">
          <mxGeometry x="110" y="210" width="150" height="30" as="geometry" />
        </mxCell>
        <mxCell id="w67qg9FCLOekjY4AeZFf-35" value="1.BPD - VPA Negocios" style="text;strokeColor=none;fillColor=none;align=left;verticalAlign=middle;spacingLeft=4;spacingRight=4;overflow=hidden;points=[[0,0.5],[1,0.5]];portConstraint=eastwest;rotatable=0;whiteSpace=wrap;html=1;" parent="w67qg9FCLOekjY4AeZFf-48" vertex="1">
          <mxGeometry x="110" y="240" width="230" height="30" as="geometry" />
        </mxCell>
        <mxCell id="w67qg9FCLOekjY4AeZFf-36" value="1.BPD - VPA Negocios" style="text;strokeColor=none;fillColor=none;align=left;verticalAlign=middle;spacingLeft=4;spacingRight=4;overflow=hidden;points=[[0,0.5],[1,0.5]];portConstraint=eastwest;rotatable=0;whiteSpace=wrap;html=1;" parent="w67qg9FCLOekjY4AeZFf-48" vertex="1">
          <mxGeometry x="110" y="457" width="230" height="30" as="geometry" />
        </mxCell>
        <mxCell id="w67qg9FCLOekjY4AeZFf-37" value="BPD Usuario Revisor" style="text;strokeColor=none;fillColor=none;align=left;verticalAlign=middle;spacingLeft=4;spacingRight=4;overflow=hidden;points=[[0,0.5],[1,0.5]];portConstraint=eastwest;rotatable=0;whiteSpace=wrap;html=1;" parent="w67qg9FCLOekjY4AeZFf-48" vertex="1">
          <mxGeometry x="110" y="427" width="150" height="30" as="geometry" />
        </mxCell>
        <mxCell id="w67qg9FCLOekjY4AeZFf-38" value="1.BPD - Estado Validacion" style="text;strokeColor=none;fillColor=none;align=left;verticalAlign=middle;spacingLeft=4;spacingRight=4;overflow=hidden;points=[[0,0.5],[1,0.5]];portConstraint=eastwest;rotatable=0;whiteSpace=wrap;html=1;" parent="w67qg9FCLOekjY4AeZFf-48" vertex="1">
          <mxGeometry x="110" y="670" width="190" height="30" as="geometry" />
        </mxCell>
        <mxCell id="w67qg9FCLOekjY4AeZFf-39" value="1.BPD - Usuario Distribucion" style="text;strokeColor=none;fillColor=none;align=left;verticalAlign=middle;spacingLeft=4;spacingRight=4;overflow=hidden;points=[[0,0.5],[1,0.5]];portConstraint=eastwest;rotatable=0;whiteSpace=wrap;html=1;" parent="w67qg9FCLOekjY4AeZFf-48" vertex="1">
          <mxGeometry x="110" y="700" width="230" height="30" as="geometry" />
        </mxCell>
        <mxCell id="w67qg9FCLOekjY4AeZFf-40" value="BPD Usuario Revisor" style="text;strokeColor=none;fillColor=none;align=left;verticalAlign=middle;spacingLeft=4;spacingRight=4;overflow=hidden;points=[[0,0.5],[1,0.5]];portConstraint=eastwest;rotatable=0;whiteSpace=wrap;html=1;" parent="w67qg9FCLOekjY4AeZFf-48" vertex="1">
          <mxGeometry x="110" y="940" width="150" height="30" as="geometry" />
        </mxCell>
        <mxCell id="w67qg9FCLOekjY4AeZFf-41" value="BPD Usuario Tecnico" style="text;strokeColor=none;fillColor=none;align=left;verticalAlign=middle;spacingLeft=4;spacingRight=4;overflow=hidden;points=[[0,0.5],[1,0.5]];portConstraint=eastwest;rotatable=0;whiteSpace=wrap;html=1;" parent="w67qg9FCLOekjY4AeZFf-48" vertex="1">
          <mxGeometry x="110" y="970" width="150" height="30" as="geometry" />
        </mxCell>
        <mxCell id="w67qg9FCLOekjY4AeZFf-70" value="BPD Usuario Tecnico" style="text;strokeColor=none;fillColor=none;align=left;verticalAlign=middle;spacingLeft=4;spacingRight=4;overflow=hidden;points=[[0,0.5],[1,0.5]];portConstraint=eastwest;rotatable=0;whiteSpace=wrap;html=1;" parent="w67qg9FCLOekjY4AeZFf-48" vertex="1">
          <mxGeometry x="110" y="487" width="150" height="30" as="geometry" />
        </mxCell>
        <mxCell id="w67qg9FCLOekjY4AeZFf-71" value="" style="ellipse;whiteSpace=wrap;html=1;aspect=fixed;fillColor=#f8cecc;strokeColor=#b85450;" parent="w67qg9FCLOekjY4AeZFf-48" vertex="1">
          <mxGeometry x="120" y="70" width="20" height="20" as="geometry" />
        </mxCell>
        <mxCell id="w67qg9FCLOekjY4AeZFf-72" value="" style="ellipse;whiteSpace=wrap;html=1;aspect=fixed;fillColor=#d5e8d4;strokeColor=#82b366;" parent="w67qg9FCLOekjY4AeZFf-48" vertex="1">
          <mxGeometry x="110" y="560" width="20" height="20" as="geometry" />
        </mxCell>
        <mxCell id="w67qg9FCLOekjY4AeZFf-73" value="" style="ellipse;whiteSpace=wrap;html=1;aspect=fixed;fillColor=#dae8fc;strokeColor=#6c8ebf;" parent="w67qg9FCLOekjY4AeZFf-48" vertex="1">
          <mxGeometry x="110" y="317" width="20" height="20" as="geometry" />
        </mxCell>
        <mxCell id="w67qg9FCLOekjY4AeZFf-74" value="" style="ellipse;whiteSpace=wrap;html=1;aspect=fixed;fillColor=#ffe6cc;strokeColor=#d79b00;" parent="w67qg9FCLOekjY4AeZFf-48" vertex="1">
          <mxGeometry x="110" y="830" width="20" height="20" as="geometry" />
        </mxCell>
        <mxCell id="iT9u2Vk3M9yyd-nfzxc5-1" value="BPD Tx Linea" style="text;strokeColor=none;fillColor=none;align=left;verticalAlign=middle;spacingLeft=4;spacingRight=4;overflow=hidden;points=[[0,0.5],[1,0.5]];portConstraint=eastwest;rotatable=0;whiteSpace=wrap;html=1;" parent="w67qg9FCLOekjY4AeZFf-48" vertex="1">
          <mxGeometry x="110" y="730" width="120" height="30" as="geometry" />
        </mxCell>
        <mxCell id="w67qg9FCLOekjY4AeZFf-49" value="Shortcuts" style="swimlane;whiteSpace=wrap;html=1;" parent="oCR6-psDNviW3AfrLjAQ-1" vertex="1">
          <mxGeometry x="780" y="70" width="430" height="1120" as="geometry" />
        </mxCell>
        <mxCell id="w67qg9FCLOekjY4AeZFf-2" value="Memos" style="rounded=1;whiteSpace=wrap;html=1;" parent="w67qg9FCLOekjY4AeZFf-49" vertex="1">
          <mxGeometry x="70" y="100" width="120" height="40" as="geometry" />
        </mxCell>
        <mxCell id="w67qg9FCLOekjY4AeZFf-4" value="TX Linea" style="text;strokeColor=none;fillColor=none;html=1;fontSize=24;fontStyle=1;verticalAlign=middle;align=center;" parent="w67qg9FCLOekjY4AeZFf-49" vertex="1">
          <mxGeometry x="40" y="40" width="100" height="40" as="geometry" />
        </mxCell>
        <mxCell id="w67qg9FCLOekjY4AeZFf-5" value="Siebel Administrator" style="text;strokeColor=none;fillColor=none;align=left;verticalAlign=middle;spacingLeft=4;spacingRight=4;overflow=hidden;points=[[0,0.5],[1,0.5]];portConstraint=eastwest;rotatable=0;whiteSpace=wrap;html=1;" parent="w67qg9FCLOekjY4AeZFf-49" vertex="1">
          <mxGeometry x="117" y="160" width="120" height="30" as="geometry" />
        </mxCell>
        <mxCell id="w67qg9FCLOekjY4AeZFf-6" value="Documentos OnBase" style="rounded=1;whiteSpace=wrap;html=1;" parent="w67qg9FCLOekjY4AeZFf-49" vertex="1">
          <mxGeometry x="70" y="270" width="120" height="40" as="geometry" />
        </mxCell>
        <mxCell id="w67qg9FCLOekjY4AeZFf-7" value="Millas" style="rounded=1;whiteSpace=wrap;html=1;" parent="w67qg9FCLOekjY4AeZFf-49" vertex="1">
          <mxGeometry x="70" y="460" width="120" height="40" as="geometry" />
        </mxCell>
        <mxCell id="w67qg9FCLOekjY4AeZFf-8" value="Cambio Datos -Empleador" style="rounded=1;whiteSpace=wrap;html=1;" parent="w67qg9FCLOekjY4AeZFf-49" vertex="1">
          <mxGeometry x="70" y="705" width="120" height="40" as="geometry" />
        </mxCell>
        <mxCell id="w67qg9FCLOekjY4AeZFf-9" value="Solicitud" style="text;strokeColor=none;fillColor=none;html=1;fontSize=24;fontStyle=1;verticalAlign=middle;align=center;" parent="w67qg9FCLOekjY4AeZFf-49" vertex="1">
          <mxGeometry x="40" y="640" width="100" height="40" as="geometry" />
        </mxCell>
        <mxCell id="w67qg9FCLOekjY4AeZFf-10" value="Correcion -Nombre/Ced/Pasaport" style="rounded=1;whiteSpace=wrap;html=1;" parent="w67qg9FCLOekjY4AeZFf-49" vertex="1">
          <mxGeometry x="70" y="890" width="120" height="40" as="geometry" />
        </mxCell>
        <mxCell id="w67qg9FCLOekjY4AeZFf-11" value="EnvÃ­o de estados" style="rounded=1;whiteSpace=wrap;html=1;" parent="w67qg9FCLOekjY4AeZFf-49" vertex="1">
          <mxGeometry x="70" y="1000" width="120" height="40" as="geometry" />
        </mxCell>
        <mxCell id="w67qg9FCLOekjY4AeZFf-12" value="BPD Tx Linea" style="text;strokeColor=none;fillColor=none;align=left;verticalAlign=middle;spacingLeft=4;spacingRight=4;overflow=hidden;points=[[0,0.5],[1,0.5]];portConstraint=eastwest;rotatable=0;whiteSpace=wrap;html=1;" parent="w67qg9FCLOekjY4AeZFf-49" vertex="1">
          <mxGeometry x="117" y="190" width="120" height="30" as="geometry" />
        </mxCell>
        <mxCell id="w67qg9FCLOekjY4AeZFf-13" value="Siebel Administrator" style="text;strokeColor=none;fillColor=none;align=left;verticalAlign=middle;spacingLeft=4;spacingRight=4;overflow=hidden;points=[[0,0.5],[1,0.5]];portConstraint=eastwest;rotatable=0;whiteSpace=wrap;html=1;" parent="w67qg9FCLOekjY4AeZFf-49" vertex="1">
          <mxGeometry x="117" y="380" width="120" height="30" as="geometry" />
        </mxCell>
        <mxCell id="w67qg9FCLOekjY4AeZFf-16" value="Siebel Administrator" style="text;strokeColor=none;fillColor=none;align=left;verticalAlign=middle;spacingLeft=4;spacingRight=4;overflow=hidden;points=[[0,0.5],[1,0.5]];portConstraint=eastwest;rotatable=0;whiteSpace=wrap;html=1;" parent="w67qg9FCLOekjY4AeZFf-49" vertex="1">
          <mxGeometry x="117" y="505" width="120" height="30" as="geometry" />
        </mxCell>
        <mxCell id="w67qg9FCLOekjY4AeZFf-17" value="1.BPD - Subgerente Negocios" style="text;strokeColor=none;fillColor=none;align=left;verticalAlign=middle;spacingLeft=4;spacingRight=4;overflow=hidden;points=[[0,0.5],[1,0.5]];portConstraint=eastwest;rotatable=0;whiteSpace=wrap;html=1;" parent="w67qg9FCLOekjY4AeZFf-49" vertex="1">
          <mxGeometry x="117" y="535" width="190" height="30" as="geometry" />
        </mxCell>
        <mxCell id="w67qg9FCLOekjY4AeZFf-18" value="1.BPD - Estado Validacion" style="text;strokeColor=none;fillColor=none;align=left;verticalAlign=middle;spacingLeft=4;spacingRight=4;overflow=hidden;points=[[0,0.5],[1,0.5]];portConstraint=eastwest;rotatable=0;whiteSpace=wrap;html=1;" parent="w67qg9FCLOekjY4AeZFf-49" vertex="1">
          <mxGeometry x="117" y="565" width="190" height="30" as="geometry" />
        </mxCell>
        <mxCell id="w67qg9FCLOekjY4AeZFf-20" value="1.BPD - Usuarios Call Center Newtech" style="text;strokeColor=none;fillColor=none;align=left;verticalAlign=middle;spacingLeft=4;spacingRight=4;overflow=hidden;points=[[0,0.5],[1,0.5]];portConstraint=eastwest;rotatable=0;whiteSpace=wrap;html=1;" parent="w67qg9FCLOekjY4AeZFf-49" vertex="1">
          <mxGeometry x="117" y="750" width="230" height="30" as="geometry" />
        </mxCell>
        <mxCell id="w67qg9FCLOekjY4AeZFf-21" value="1.BPD - Plataforma" style="text;strokeColor=none;fillColor=none;align=left;verticalAlign=middle;spacingLeft=4;spacingRight=4;overflow=hidden;points=[[0,0.5],[1,0.5]];portConstraint=eastwest;rotatable=0;whiteSpace=wrap;html=1;" parent="w67qg9FCLOekjY4AeZFf-49" vertex="1">
          <mxGeometry x="117" y="780" width="230" height="30" as="geometry" />
        </mxCell>
        <mxCell id="w67qg9FCLOekjY4AeZFf-22" value="1.BPD - Soporte Proyecto CRM" style="text;strokeColor=none;fillColor=none;align=left;verticalAlign=middle;spacingLeft=4;spacingRight=4;overflow=hidden;points=[[0,0.5],[1,0.5]];portConstraint=eastwest;rotatable=0;whiteSpace=wrap;html=1;" parent="w67qg9FCLOekjY4AeZFf-49" vertex="1">
          <mxGeometry x="117" y="810" width="230" height="30" as="geometry" />
        </mxCell>
        <mxCell id="w67qg9FCLOekjY4AeZFf-23" value="1.BPD - VPA Negocios" style="text;strokeColor=none;fillColor=none;align=left;verticalAlign=middle;spacingLeft=4;spacingRight=4;overflow=hidden;points=[[0,0.5],[1,0.5]];portConstraint=eastwest;rotatable=0;whiteSpace=wrap;html=1;" parent="w67qg9FCLOekjY4AeZFf-49" vertex="1">
          <mxGeometry x="117" y="940" width="230" height="30" as="geometry" />
        </mxCell>
        <mxCell id="w67qg9FCLOekjY4AeZFf-24" value="1.BPD - Usuario Supervisor Distribucion" style="text;strokeColor=none;fillColor=none;align=left;verticalAlign=middle;spacingLeft=4;spacingRight=4;overflow=hidden;points=[[0,0.5],[1,0.5]];portConstraint=eastwest;rotatable=0;whiteSpace=wrap;html=1;" parent="w67qg9FCLOekjY4AeZFf-49" vertex="1">
          <mxGeometry x="117" y="1050" width="230" height="30" as="geometry" />
        </mxCell>
        <mxCell id="w67qg9FCLOekjY4AeZFf-25" value="Siebel Administrator" style="text;strokeColor=none;fillColor=none;align=left;verticalAlign=middle;spacingLeft=4;spacingRight=4;overflow=hidden;points=[[0,0.5],[1,0.5]];portConstraint=eastwest;rotatable=0;whiteSpace=wrap;html=1;" parent="w67qg9FCLOekjY4AeZFf-49" vertex="1">
          <mxGeometry x="117" y="1080" width="230" height="30" as="geometry" />
        </mxCell>
        <mxCell id="w67qg9FCLOekjY4AeZFf-14" value="1.BPD - Supervisor Seguimiento Plataformas Critica" style="text;strokeColor=none;fillColor=none;align=left;verticalAlign=middle;spacingLeft=4;spacingRight=4;overflow=hidden;points=[[0,0.5],[1,0.5]];portConstraint=eastwest;rotatable=0;whiteSpace=wrap;html=1;" parent="w67qg9FCLOekjY4AeZFf-49" vertex="1">
          <mxGeometry x="117" y="320" width="300" height="30" as="geometry" />
        </mxCell>
        <mxCell id="w67qg9FCLOekjY4AeZFf-15" value="1. BPD - Supervisor Segmento Nomina" style="text;strokeColor=none;fillColor=none;align=left;verticalAlign=middle;spacingLeft=4;spacingRight=4;overflow=hidden;points=[[0,0.5],[1,0.5]];portConstraint=eastwest;rotatable=0;whiteSpace=wrap;html=1;" parent="w67qg9FCLOekjY4AeZFf-49" vertex="1">
          <mxGeometry x="117" y="350" width="300" height="30" as="geometry" />
        </mxCell>
        <mxCell id="w67qg9FCLOekjY4AeZFf-56" value="1.BPD - Usuario Supervisor Distribucion" style="text;strokeColor=none;fillColor=none;align=left;verticalAlign=middle;spacingLeft=4;spacingRight=4;overflow=hidden;points=[[0,0.5],[1,0.5]];portConstraint=eastwest;rotatable=0;whiteSpace=wrap;html=1;" parent="w67qg9FCLOekjY4AeZFf-49" vertex="1">
          <mxGeometry x="117" y="220" width="230" height="30" as="geometry" />
        </mxCell>
        <mxCell id="w67qg9FCLOekjY4AeZFf-58" value="" style="ellipse;whiteSpace=wrap;html=1;aspect=fixed;fillColor=#f8cecc;strokeColor=#b85450;" parent="w67qg9FCLOekjY4AeZFf-49" vertex="1">
          <mxGeometry x="205" y="110" width="20" height="20" as="geometry" />
        </mxCell>
        <mxCell id="w67qg9FCLOekjY4AeZFf-59" value="" style="ellipse;whiteSpace=wrap;html=1;aspect=fixed;fillColor=#d5e8d4;strokeColor=#82b366;" parent="w67qg9FCLOekjY4AeZFf-49" vertex="1">
          <mxGeometry x="237" y="110" width="20" height="20" as="geometry" />
        </mxCell>
        <mxCell id="w67qg9FCLOekjY4AeZFf-60" value="" style="ellipse;whiteSpace=wrap;html=1;aspect=fixed;fillColor=#f8cecc;strokeColor=#b85450;" parent="w67qg9FCLOekjY4AeZFf-49" vertex="1">
          <mxGeometry x="200" y="280" width="20" height="20" as="geometry" />
        </mxCell>
        <mxCell id="w67qg9FCLOekjY4AeZFf-62" value="" style="ellipse;whiteSpace=wrap;html=1;aspect=fixed;fillColor=#f8cecc;strokeColor=#b85450;" parent="w67qg9FCLOekjY4AeZFf-49" vertex="1">
          <mxGeometry x="200" y="470" width="20" height="20" as="geometry" />
        </mxCell>
        <mxCell id="w67qg9FCLOekjY4AeZFf-63" value="" style="ellipse;whiteSpace=wrap;html=1;aspect=fixed;fillColor=#d5e8d4;strokeColor=#82b366;" parent="w67qg9FCLOekjY4AeZFf-49" vertex="1">
          <mxGeometry x="232" y="470" width="20" height="20" as="geometry" />
        </mxCell>
        <mxCell id="w67qg9FCLOekjY4AeZFf-66" value="" style="ellipse;whiteSpace=wrap;html=1;aspect=fixed;fillColor=#f8cecc;strokeColor=#b85450;" parent="w67qg9FCLOekjY4AeZFf-49" vertex="1">
          <mxGeometry x="200" y="900" width="20" height="20" as="geometry" />
        </mxCell>
        <mxCell id="w67qg9FCLOekjY4AeZFf-67" value="" style="ellipse;whiteSpace=wrap;html=1;aspect=fixed;fillColor=#dae8fc;strokeColor=#6c8ebf;" parent="w67qg9FCLOekjY4AeZFf-49" vertex="1">
          <mxGeometry x="232" y="900" width="20" height="20" as="geometry" />
        </mxCell>
        <mxCell id="w67qg9FCLOekjY4AeZFf-68" value="" style="ellipse;whiteSpace=wrap;html=1;aspect=fixed;fillColor=#f8cecc;strokeColor=#b85450;" parent="w67qg9FCLOekjY4AeZFf-49" vertex="1">
          <mxGeometry x="200" y="1010" width="20" height="20" as="geometry" />
        </mxCell>
        <mxCell id="w67qg9FCLOekjY4AeZFf-50" style="edgeStyle=orthogonalEdgeStyle;rounded=0;orthogonalLoop=1;jettySize=auto;html=1;exitX=1;exitY=0.5;exitDx=0;exitDy=0;entryX=0;entryY=0.5;entryDx=0;entryDy=0;fillColor=#f8cecc;strokeColor=#b85450;" parent="oCR6-psDNviW3AfrLjAQ-1" source="w67qg9FCLOekjY4AeZFf-3" target="w67qg9FCLOekjY4AeZFf-6" edge="1">
          <mxGeometry relative="1" as="geometry" />
        </mxCell>
        <mxCell id="w67qg9FCLOekjY4AeZFf-51" style="edgeStyle=orthogonalEdgeStyle;rounded=0;orthogonalLoop=1;jettySize=auto;html=1;exitX=1;exitY=0.5;exitDx=0;exitDy=0;entryX=0;entryY=0.5;entryDx=0;entryDy=0;fillColor=#f8cecc;strokeColor=#b85450;" parent="oCR6-psDNviW3AfrLjAQ-1" source="w67qg9FCLOekjY4AeZFf-3" target="w67qg9FCLOekjY4AeZFf-7" edge="1">
          <mxGeometry relative="1" as="geometry" />
        </mxCell>
        <mxCell id="w67qg9FCLOekjY4AeZFf-52" style="edgeStyle=orthogonalEdgeStyle;rounded=0;orthogonalLoop=1;jettySize=auto;html=1;exitX=1;exitY=0.5;exitDx=0;exitDy=0;entryX=0;entryY=0.5;entryDx=0;entryDy=0;fillColor=#f8cecc;strokeColor=#b85450;" parent="oCR6-psDNviW3AfrLjAQ-1" source="w67qg9FCLOekjY4AeZFf-3" target="w67qg9FCLOekjY4AeZFf-11" edge="1">
          <mxGeometry relative="1" as="geometry" />
        </mxCell>
        <mxCell id="w67qg9FCLOekjY4AeZFf-53" style="edgeStyle=orthogonalEdgeStyle;rounded=0;orthogonalLoop=1;jettySize=auto;html=1;exitX=1;exitY=0.5;exitDx=0;exitDy=0;entryX=0;entryY=0.5;entryDx=0;entryDy=0;fillColor=#f8cecc;strokeColor=#b85450;" parent="oCR6-psDNviW3AfrLjAQ-1" source="w67qg9FCLOekjY4AeZFf-3" target="w67qg9FCLOekjY4AeZFf-10" edge="1">
          <mxGeometry relative="1" as="geometry" />
        </mxCell>
        <mxCell id="w67qg9FCLOekjY4AeZFf-54" style="edgeStyle=orthogonalEdgeStyle;rounded=0;orthogonalLoop=1;jettySize=auto;html=1;exitX=1;exitY=0.5;exitDx=0;exitDy=0;entryX=0.5;entryY=0;entryDx=0;entryDy=0;fillColor=#dae8fc;strokeColor=#6c8ebf;" parent="oCR6-psDNviW3AfrLjAQ-1" source="w67qg9FCLOekjY4AeZFf-27" target="w67qg9FCLOekjY4AeZFf-10" edge="1">
          <mxGeometry relative="1" as="geometry">
            <Array as="points">
              <mxPoint x="530" y="437" />
              <mxPoint x="530" y="940" />
              <mxPoint x="910" y="940" />
            </Array>
          </mxGeometry>
        </mxCell>
        <mxCell id="iT9u2Vk3M9yyd-nfzxc5-2" style="edgeStyle=orthogonalEdgeStyle;rounded=0;orthogonalLoop=1;jettySize=auto;html=1;exitX=1;exitY=0.5;exitDx=0;exitDy=0;entryX=0.5;entryY=0;entryDx=0;entryDy=0;fillColor=#d5e8d4;strokeColor=#82b366;" parent="oCR6-psDNviW3AfrLjAQ-1" source="w67qg9FCLOekjY4AeZFf-29" target="w67qg9FCLOekjY4AeZFf-7" edge="1">
          <mxGeometry relative="1" as="geometry">
            <Array as="points">
              <mxPoint x="550" y="680" />
              <mxPoint x="550" y="510" />
              <mxPoint x="910" y="510" />
            </Array>
          </mxGeometry>
        </mxCell>
        <mxCell id="w67qg9FCLOekjY4AeZFf-45" style="edgeStyle=orthogonalEdgeStyle;rounded=0;orthogonalLoop=1;jettySize=auto;html=1;exitX=1;exitY=0.5;exitDx=0;exitDy=0;entryX=0;entryY=0.5;entryDx=0;entryDy=0;fillColor=#f8cecc;strokeColor=#b85450;" parent="oCR6-psDNviW3AfrLjAQ-1" source="w67qg9FCLOekjY4AeZFf-3" target="w67qg9FCLOekjY4AeZFf-2" edge="1">
          <mxGeometry relative="1" as="geometry" />
        </mxCell>
        <mxCell id="iT9u2Vk3M9yyd-nfzxc5-3" style="edgeStyle=orthogonalEdgeStyle;rounded=0;orthogonalLoop=1;jettySize=auto;html=1;exitX=1;exitY=0.5;exitDx=0;exitDy=0;entryX=0.5;entryY=0;entryDx=0;entryDy=0;fillColor=#d5e8d4;strokeColor=#82b366;" parent="oCR6-psDNviW3AfrLjAQ-1" source="w67qg9FCLOekjY4AeZFf-29" target="w67qg9FCLOekjY4AeZFf-2" edge="1">
          <mxGeometry relative="1" as="geometry">
            <Array as="points">
              <mxPoint x="550" y="680" />
              <mxPoint x="550" y="150" />
              <mxPoint x="910" y="150" />
            </Array>
          </mxGeometry>
        </mxCell>
      </root>
    </mxGraphModel>
  </diagram>
</mxfile>
